<mxfile host="65bd71144e">
    <diagram id="3l7BtDmbRLB0vHWn7U2c" name="PÃ¡gina-1">
        <mxGraphModel dx="1729" dy="1580" grid="1" gridSize="10" guides="1" tooltips="1" connect="1" arrows="1" fold="1" page="1" pageScale="1" pageWidth="827" pageHeight="1169" math="0" shadow="0">
            <root>
                <mxCell id="0"/>
                <mxCell id="1" parent="0"/>
                <mxCell id="4" value="inicio&amp;nbsp;" style="ellipse;whiteSpace=wrap;html=1;fillColor=#660000;" parent="1" vertex="1">
                    <mxGeometry x="390" y="-360" width="120" height="40" as="geometry"/>
                </mxCell>
                <mxCell id="5" value="" style="endArrow=none;html=1;" parent="1" edge="1">
                    <mxGeometry width="50" height="50" relative="1" as="geometry">
                        <mxPoint x="450" y="-290" as="sourcePoint"/>
                        <mxPoint x="450" y="-320" as="targetPoint"/>
                    </mxGeometry>
                </mxCell>
                <mxCell id="6" value="x,y" style="shape=parallelogram;perimeter=parallelogramPerimeter;whiteSpace=wrap;html=1;fixedSize=1;fillColor=#003366;" parent="1" vertex="1">
                    <mxGeometry x="400" y="-290" width="100" height="40" as="geometry"/>
                </mxCell>
                <mxCell id="11" value="" style="endArrow=none;html=1;" parent="1" target="12" edge="1">
                    <mxGeometry width="50" height="50" relative="1" as="geometry">
                        <mxPoint x="450" y="-210" as="sourcePoint"/>
                        <mxPoint x="450" y="-250" as="targetPoint"/>
                    </mxGeometry>
                </mxCell>
                <mxCell id="12" value="X===0&lt;br&gt;" style="rhombus;whiteSpace=wrap;html=1;fillColor=#666600;" parent="1" vertex="1">
                    <mxGeometry x="410" y="-220" width="80" height="80" as="geometry"/>
                </mxCell>
                <mxCell id="13" value="" style="endArrow=none;html=1;exitX=0.5;exitY=0;exitDx=0;exitDy=0;" parent="1" source="12" edge="1">
                    <mxGeometry width="50" height="50" relative="1" as="geometry">
                        <mxPoint x="400" y="-200" as="sourcePoint"/>
                        <mxPoint x="450" y="-250" as="targetPoint"/>
                    </mxGeometry>
                </mxCell>
                <mxCell id="18" value="" style="endArrow=classic;html=1;exitX=0;exitY=0.5;exitDx=0;exitDy=0;" parent="1" source="12" edge="1">
                    <mxGeometry relative="1" as="geometry">
                        <mxPoint x="360" y="-280" as="sourcePoint"/>
                        <mxPoint x="280" y="-140" as="targetPoint"/>
                        <Array as="points">
                            <mxPoint x="280" y="-180"/>
                            <mxPoint x="280" y="-160"/>
                        </Array>
                    </mxGeometry>
                </mxCell>
                <mxCell id="20" value="y==0" style="rhombus;whiteSpace=wrap;html=1;fillColor=#999900;" parent="1" vertex="1">
                    <mxGeometry x="240" y="-140" width="80" height="80" as="geometry"/>
                </mxCell>
                <mxCell id="21" value="" style="endArrow=classic;html=1;" parent="1" edge="1">
                    <mxGeometry relative="1" as="geometry">
                        <mxPoint x="490" y="-180.5" as="sourcePoint"/>
                        <mxPoint x="640" y="-120" as="targetPoint"/>
                        <Array as="points">
                            <mxPoint x="640" y="-180"/>
                        </Array>
                    </mxGeometry>
                </mxCell>
                <mxCell id="23" value="y==0" style="rhombus;whiteSpace=wrap;html=1;fillColor=#999900;" parent="1" vertex="1">
                    <mxGeometry x="600" y="-120" width="80" height="80" as="geometry"/>
                </mxCell>
                <mxCell id="24" value="" style="endArrow=classic;html=1;" parent="1" edge="1">
                    <mxGeometry relative="1" as="geometry">
                        <mxPoint x="680" y="-80.5" as="sourcePoint"/>
                        <mxPoint x="790" y="-40" as="targetPoint"/>
                        <Array as="points">
                            <mxPoint x="750" y="-80"/>
                            <mxPoint x="790" y="-80"/>
                            <mxPoint x="790" y="-70"/>
                        </Array>
                    </mxGeometry>
                </mxCell>
                <mxCell id="26" value="origen" style="shape=document;whiteSpace=wrap;html=1;boundedLbl=1;fillColor=#660000;" parent="1" vertex="1">
                    <mxGeometry x="720" y="-40" width="120" height="80" as="geometry"/>
                </mxCell>
                <mxCell id="27" value="" style="endArrow=classic;html=1;" parent="1" edge="1">
                    <mxGeometry relative="1" as="geometry">
                        <mxPoint x="600" y="-80.5" as="sourcePoint"/>
                        <mxPoint x="490" y="-40" as="targetPoint"/>
                        <Array as="points">
                            <mxPoint x="490" y="-80"/>
                        </Array>
                    </mxGeometry>
                </mxCell>
                <mxCell id="29" value="eje x" style="shape=document;whiteSpace=wrap;html=1;boundedLbl=1;fillColor=#990000;" parent="1" vertex="1">
                    <mxGeometry x="430" y="-40" width="120" height="80" as="geometry"/>
                </mxCell>
                <mxCell id="30" value="" style="endArrow=classic;html=1;exitX=0.2;exitY=0.975;exitDx=0;exitDy=0;exitPerimeter=0;entryX=0.583;entryY=0.75;entryDx=0;entryDy=0;entryPerimeter=0;" parent="1" source="29" target="26" edge="1">
                    <mxGeometry relative="1" as="geometry">
                        <mxPoint x="450" y="150" as="sourcePoint"/>
                        <mxPoint x="750" y="160" as="targetPoint"/>
                        <Array as="points">
                            <mxPoint x="450" y="160"/>
                            <mxPoint x="790" y="160"/>
                        </Array>
                    </mxGeometry>
                </mxCell>
                <mxCell id="34" value="" style="endArrow=classic;html=1;entryX=0.6;entryY=0.013;entryDx=0;entryDy=0;entryPerimeter=0;" parent="1" target="36" edge="1">
                    <mxGeometry relative="1" as="geometry">
                        <mxPoint x="320" y="-100.5" as="sourcePoint"/>
                        <mxPoint x="366" y="-50" as="targetPoint"/>
                        <Array as="points">
                            <mxPoint x="366" y="-100"/>
                        </Array>
                    </mxGeometry>
                </mxCell>
                <mxCell id="36" value="eje x" style="shape=document;whiteSpace=wrap;html=1;boundedLbl=1;fillColor=#990000;" parent="1" vertex="1">
                    <mxGeometry x="300" y="-40" width="110" height="80" as="geometry"/>
                </mxCell>
                <mxCell id="37" value="" style="endArrow=classic;html=1;" parent="1" edge="1">
                    <mxGeometry relative="1" as="geometry">
                        <mxPoint x="240" y="-100.5" as="sourcePoint"/>
                        <mxPoint x="80" y="-40" as="targetPoint"/>
                        <Array as="points">
                            <mxPoint x="80" y="-100"/>
                        </Array>
                    </mxGeometry>
                </mxCell>
                <mxCell id="39" value="" style="endArrow=classic;html=1;" parent="1" edge="1">
                    <mxGeometry relative="1" as="geometry">
                        <mxPoint x="150" y="-810" as="sourcePoint"/>
                        <mxPoint x="250" y="-810" as="targetPoint"/>
                    </mxGeometry>
                </mxCell>
                <mxCell id="40" value="" style="shape=message;html=1;outlineConnect=0;" parent="39" vertex="1">
                    <mxGeometry width="20" height="14" relative="1" as="geometry">
                        <mxPoint x="-10" y="-7" as="offset"/>
                    </mxGeometry>
                </mxCell>
                <mxCell id="41" value="" style="endArrow=classic;html=1;" parent="1" edge="1">
                    <mxGeometry relative="1" as="geometry">
                        <mxPoint x="350" y="30" as="sourcePoint"/>
                        <mxPoint x="350" y="400" as="targetPoint"/>
                    </mxGeometry>
                </mxCell>
                <mxCell id="43" value="x&amp;gt;0" style="rhombus;whiteSpace=wrap;html=1;fillColor=#999900;" parent="1" vertex="1">
                    <mxGeometry x="40" y="-40" width="80" height="80" as="geometry"/>
                </mxCell>
                <mxCell id="44" value="" style="endArrow=classic;html=1;" parent="1" edge="1">
                    <mxGeometry relative="1" as="geometry">
                        <mxPoint x="120" y="-1" as="sourcePoint"/>
                        <mxPoint x="210" y="30" as="targetPoint"/>
                        <Array as="points">
                            <mxPoint x="210"/>
                        </Array>
                    </mxGeometry>
                </mxCell>
                <mxCell id="46" value="y&amp;gt;0" style="rhombus;whiteSpace=wrap;html=1;fillColor=#999900;" parent="1" vertex="1">
                    <mxGeometry x="170" y="30" width="80" height="80" as="geometry"/>
                </mxCell>
                <mxCell id="47" value="" style="endArrow=classic;html=1;" parent="1" edge="1">
                    <mxGeometry relative="1" as="geometry">
                        <mxPoint x="250" y="69.5" as="sourcePoint"/>
                        <mxPoint x="290" y="120" as="targetPoint"/>
                        <Array as="points">
                            <mxPoint x="290" y="70"/>
                        </Array>
                    </mxGeometry>
                </mxCell>
                <mxCell id="50" value="cuadrante 1" style="shape=document;whiteSpace=wrap;html=1;boundedLbl=1;fillColor=#990000;" parent="1" vertex="1">
                    <mxGeometry x="225" y="120" width="110" height="60" as="geometry"/>
                </mxCell>
                <mxCell id="51" value="" style="endArrow=classic;html=1;" parent="1" edge="1">
                    <mxGeometry relative="1" as="geometry">
                        <mxPoint x="170" y="69.5" as="sourcePoint"/>
                        <mxPoint x="70" y="120" as="targetPoint"/>
                        <Array as="points">
                            <mxPoint x="70" y="70"/>
                        </Array>
                    </mxGeometry>
                </mxCell>
                <mxCell id="53" value="cuadrante 4" style="shape=document;whiteSpace=wrap;html=1;boundedLbl=1;fillColor=#990000;" parent="1" vertex="1">
                    <mxGeometry x="20" y="120" width="100" height="70" as="geometry"/>
                </mxCell>
                <mxCell id="54" value="" style="endArrow=classic;html=1;exitX=0;exitY=0.5;exitDx=0;exitDy=0;" parent="1" source="43" edge="1">
                    <mxGeometry relative="1" as="geometry">
                        <mxPoint x="-10" as="sourcePoint"/>
                        <mxPoint x="-170" y="80" as="targetPoint"/>
                        <Array as="points">
                            <mxPoint x="-170"/>
                        </Array>
                    </mxGeometry>
                </mxCell>
                <mxCell id="56" value="y&amp;lt;0" style="rhombus;whiteSpace=wrap;html=1;fillColor=#999900;" parent="1" vertex="1">
                    <mxGeometry x="-210" y="80" width="80" height="80" as="geometry"/>
                </mxCell>
                <mxCell id="57" value="" style="endArrow=classic;html=1;" parent="1" edge="1">
                    <mxGeometry relative="1" as="geometry">
                        <mxPoint x="-130" y="120" as="sourcePoint"/>
                        <mxPoint x="-80" y="200" as="targetPoint"/>
                        <Array as="points">
                            <mxPoint x="-80" y="120"/>
                        </Array>
                    </mxGeometry>
                </mxCell>
                <mxCell id="60" value="cuadrante 3" style="shape=document;whiteSpace=wrap;html=1;boundedLbl=1;fillColor=#990000;" parent="1" vertex="1">
                    <mxGeometry x="-120" y="200" width="90" height="70" as="geometry"/>
                </mxCell>
                <mxCell id="61" value="" style="endArrow=classic;html=1;" parent="1" edge="1">
                    <mxGeometry relative="1" as="geometry">
                        <mxPoint x="-200" y="120" as="sourcePoint"/>
                        <mxPoint x="-320" y="200" as="targetPoint"/>
                        <Array as="points">
                            <mxPoint x="-320" y="120"/>
                        </Array>
                    </mxGeometry>
                </mxCell>
                <mxCell id="63" value="cuadrante 2&lt;br&gt;" style="shape=document;whiteSpace=wrap;html=1;boundedLbl=1;fillColor=#660000;" parent="1" vertex="1">
                    <mxGeometry x="-370" y="200" width="110" height="60" as="geometry"/>
                </mxCell>
                <mxCell id="64" value="" style="endArrow=none;html=1;" parent="1" edge="1">
                    <mxGeometry width="50" height="50" relative="1" as="geometry">
                        <mxPoint x="600" y="160" as="sourcePoint"/>
                        <mxPoint x="600" y="410" as="targetPoint"/>
                    </mxGeometry>
                </mxCell>
                <mxCell id="66" value="" style="endArrow=none;html=1;exitX=0.318;exitY=1.117;exitDx=0;exitDy=0;exitPerimeter=0;" parent="1" source="63" target="60" edge="1">
                    <mxGeometry width="50" height="50" relative="1" as="geometry">
                        <mxPoint x="280" y="280" as="sourcePoint"/>
                        <mxPoint x="330" y="230" as="targetPoint"/>
                        <Array as="points">
                            <mxPoint x="-330" y="350"/>
                            <mxPoint x="-80" y="350"/>
                        </Array>
                    </mxGeometry>
                </mxCell>
                <mxCell id="67" value="" style="endArrow=classic;html=1;entryX=0.4;entryY=0.983;entryDx=0;entryDy=0;entryPerimeter=0;exitX=0.35;exitY=1.014;exitDx=0;exitDy=0;exitPerimeter=0;" parent="1" source="53" target="50" edge="1">
                    <mxGeometry relative="1" as="geometry">
                        <mxPoint x="-60" y="260" as="sourcePoint"/>
                        <mxPoint x="40" y="260" as="targetPoint"/>
                        <Array as="points">
                            <mxPoint x="55" y="290"/>
                            <mxPoint x="270" y="300"/>
                        </Array>
                    </mxGeometry>
                </mxCell>
                <mxCell id="69" value="" style="endArrow=classic;html=1;" parent="1" edge="1">
                    <mxGeometry width="50" height="50" relative="1" as="geometry">
                        <mxPoint x="-230" y="350" as="sourcePoint"/>
                        <mxPoint x="-230" y="410" as="targetPoint"/>
                    </mxGeometry>
                </mxCell>
                <mxCell id="70" value="" style="endArrow=classic;html=1;" parent="1" edge="1">
                    <mxGeometry width="50" height="50" relative="1" as="geometry">
                        <mxPoint x="160" y="300" as="sourcePoint"/>
                        <mxPoint x="160" y="390" as="targetPoint"/>
                    </mxGeometry>
                </mxCell>
                <mxCell id="72" value="" style="endArrow=none;html=1;" parent="1" edge="1">
                    <mxGeometry width="50" height="50" relative="1" as="geometry">
                        <mxPoint x="600" y="390" as="sourcePoint"/>
                        <mxPoint x="-250" y="390" as="targetPoint"/>
                    </mxGeometry>
                </mxCell>
                <mxCell id="73" value="" style="endArrow=classic;html=1;" parent="1" edge="1">
                    <mxGeometry width="50" height="50" relative="1" as="geometry">
                        <mxPoint x="160" y="400" as="sourcePoint"/>
                        <mxPoint x="160" y="450" as="targetPoint"/>
                    </mxGeometry>
                </mxCell>
                <mxCell id="74" value="fin" style="ellipse;whiteSpace=wrap;html=1;fillColor=#336600;" parent="1" vertex="1">
                    <mxGeometry x="100" y="450" width="120" height="80" as="geometry"/>
                </mxCell>
            </root>
        </mxGraphModel>
    </diagram>
</mxfile>